<?xml version="1.0" encoding="iso-8859-1"?>
<!-- Generator: Adobe Illustrator 16.0.0, SVG Export Plug-In . SVG Version: 6.00 Build 0)  -->
<!DOCTYPE svg PUBLIC "-//W3C//DTD SVG 1.1//EN" "http://www.w3.org/Graphics/SVG/1.1/DTD/svg11.dtd">
<svg version="1.1" id="Capa_1" xmlns="http://www.w3.org/2000/svg" xmlns:xlink="http://www.w3.org/1999/xlink" x="0px" y="0px"
	 width="705.273px" height="705.273px" viewBox="0 0 705.273 705.273" style="enable-background:new 0 0 705.273 705.273;"
	 xml:space="preserve">
<g>
	<g>
		<g>
			<g>
				<g>
					<path d="M342.733,684.541c-12.729,0-23.026-10.296-23.026-23.026v-59.097c0-12.719,10.296-23.015,23.026-23.015
						c12.718,0,23.015,10.296,23.015,23.015v59.097C365.76,674.245,355.451,684.541,342.733,684.541z"/>
				</g>
			</g>
		</g>
		<g>
			<path d="M395.197,117.984V91.589l64.924,0.023v-5.558C460.133,38.528,421.616,0,374.066,0h-62.654
				c-47.502,0-86.055,38.528-86.055,86.055v5.511l66.34,0.023v26.161c-139.15,24.22-245.06,145.305-245.06,291.404
				c0,163.568,132.574,296.119,296.096,296.119c163.545,0,296.119-132.551,296.119-296.119
				C638.853,263.546,533.68,142.777,395.197,117.984z M342.733,636.207c-117.423,0-214.288-89.611-225.872-204.038h32.644
				c12.718,0,23.014-10.297,23.014-23.026s-10.296-23.014-23.014-23.014h-32.644c11.583-114.428,108.449-204.016,225.872-204.016
				c125.191,0,227.054,101.838,227.054,227.03S467.925,636.207,342.733,636.207z"/>
			<path d="M342.687,195.334c-0.339,0-0.678,0.047-0.994,0.047v211.796H556.39C555.36,290.023,460.133,195.334,342.687,195.334z"/>
			<path d="M651.98,153.319l-48.018-48.041c-4.271-4.271-10.074-6.657-16.1-6.681c-6.049,0-11.829,2.41-16.1,6.681l-38.938,38.938
				l80.228,80.193l38.892-38.891C660.86,176.614,660.86,162.223,651.98,153.319z"/>
		</g>
	</g>
</g>
<g>
</g>
<g>
</g>
<g>
</g>
<g>
</g>
<g>
</g>
<g>
</g>
<g>
</g>
<g>
</g>
<g>
</g>
<g>
</g>
<g>
</g>
<g>
</g>
<g>
</g>
<g>
</g>
<g>
</g>
</svg>
